HIERARCHY
ROOT Hips
{
	OFFSET	0.00	0.00	0.00
	CHANNELS 6 Xposition Yposition Zposition Zrotation Xrotation Yrotation
	JOINT LeftUpLeg
	{
		OFFSET	 0.126116	-0.014019	-0.065224
		CHANNELS 3 Zrotation Xrotation Yrotation
		JOINT LeftLeg
		{
			OFFSET	 0.000000	 0.000000	 0.569914
			CHANNELS 3 Zrotation Xrotation Yrotation
			JOINT LeftFoot
			{
				OFFSET	 0.000000	 0.000000	 0.544423
				CHANNELS 3 Zrotation Xrotation Yrotation
				JOINT LeftToeBase
				{
					OFFSET	 0.000000	 0.000000	 0.207117
					CHANNELS 3 Zrotation Xrotation Yrotation
					End Site
					{
						OFFSET	 0.000000	 0.000000	 0.207117
					}
				}
			}
		}
	}
	JOINT RightUpLeg
	{
		OFFSET	-0.124023	-0.008373	-0.065224
		CHANNELS 3 Zrotation Xrotation Yrotation
		JOINT RightLeg
		{
			OFFSET	 0.000000	 0.000000	 0.570047
			CHANNELS 3 Zrotation Xrotation Yrotation
			JOINT RightFoot
			{
				OFFSET	 0.000000	 0.000000	 0.544354
				CHANNELS 3 Zrotation Xrotation Yrotation
				JOINT RightToeBase
				{
					OFFSET	 0.000000	 0.000000	 0.207540
					CHANNELS 3 Zrotation Xrotation Yrotation
					End Site
					{
						OFFSET	 0.000000	 0.000000	 0.207540
					}
				}
			}
		}
	}
	JOINT Spine
	{
		OFFSET	 0.000184	-0.007763	 0.117403
		CHANNELS 3 Zrotation Xrotation Yrotation
		JOINT Spine1
		{
			OFFSET	 0.000000	 0.000000	 0.137269
			CHANNELS 3 Zrotation Xrotation Yrotation
			JOINT Spine2
			{
				OFFSET	 0.000000	 0.000000	 0.156879
				CHANNELS 3 Zrotation Xrotation Yrotation
				JOINT LeftShoulder
				{
					OFFSET	 0.080501	-0.002496	 0.160144
					CHANNELS 3 Zrotation Xrotation Yrotation
					JOINT LeftArm
					{
						OFFSET	 0.000000	 0.000000	 0.164363
						CHANNELS 3 Zrotation Xrotation Yrotation
						JOINT LeftForeArm
						{
							OFFSET	 0.000000	 0.000000	 0.364576
							CHANNELS 3 Zrotation Xrotation Yrotation
							JOINT LeftHand
							{
								OFFSET	 0.000000	 0.000000	 0.360812
								CHANNELS 3 Zrotation Xrotation Yrotation
								JOINT LeftHandIndex1
								{
									OFFSET	 0.000000	 0.000000	 0.086006
									CHANNELS 3 Zrotation Xrotation Yrotation
									JOINT LeftHandIndex2
									{
										OFFSET	 0.000000	 0.000000	 0.047236
										CHANNELS 3 Zrotation Xrotation Yrotation
										JOINT LeftHandIndex3
										{
											OFFSET	-0.004284	-0.000551	 0.038166
											CHANNELS 3 Zrotation Xrotation Yrotation
											End Site
											{
												OFFSET	-0.004284	-0.000551	 0.038166
											}
										}
									}
								}
							}
						}
					}
				}
				JOINT Neck
				{
					OFFSET	 0.000000	 0.000000	 0.176489
					CHANNELS 3 Zrotation Xrotation Yrotation
					JOINT Head
					{
						OFFSET	 0.000000	-0.001747	 0.077940
						CHANNELS 3 Zrotation Xrotation Yrotation
						End Site
						{
							OFFSET	 0.000000	-0.001747	 0.077940
						}
					}
				}
				JOINT RightShoulder
				{
					OFFSET	-0.080363	 0.000306	 0.159706
					CHANNELS 3 Zrotation Xrotation Yrotation
					JOINT RightArm
					{
						OFFSET	 0.000000	 0.000000	 0.164196
						CHANNELS 3 Zrotation Xrotation Yrotation
						JOINT RightForeArm
						{
							OFFSET	 0.000000	 0.000000	 0.365611
							CHANNELS 3 Zrotation Xrotation Yrotation
							JOINT RightHand
							{
								OFFSET	 0.000000	 0.000000	 0.360648
								CHANNELS 3 Zrotation Xrotation Yrotation
								JOINT RightHandIndex1
								{
									OFFSET	 0.000000	 0.000000	 0.069977
									CHANNELS 3 Zrotation Xrotation Yrotation
									JOINT RightHandIndex2
									{
										OFFSET	 0.000000	 0.000000	 0.052305
										CHANNELS 3 Zrotation Xrotation Yrotation
										JOINT RightHandIndex3
										{
											OFFSET	 0.009002	-0.000782	 0.042196
											CHANNELS 3 Zrotation Xrotation Yrotation
											End Site
											{
												OFFSET	 0.009002	-0.000782	 0.042196
											}
										}
									}
								}
							}
						}
					}
				}
			}
		}
	}
}
MOTION
Frames:    9
Frame Time: 0.03333334
-0.042712	 0.233670	 1.029160	 1.844976	 34.329110	-7.324003	 23.602690	-84.867940	-157.717900	 7.757726	-74.037050	 7.863087	 0.446924	 78.295390	-0.290924	-2.385832	 28.452790	-0.000001	 82.776550	-79.544870	-101.782300	-19.443170	-76.787870	-13.933390	 27.147300	 76.561370	-15.782960	 2.384659	 28.388700	-0.000001	-8.746013	 15.114920	 1.343468	-2.624331	 21.735820	 3.125483	-1.211985	-0.374980	 2.561658	-99.196310	 68.205980	 156.681100	 7.908738	-6.136501	-49.537740	-20.776510	 10.384910	-24.388200	-30.245330	-34.155770	-21.002690	-2.027600	 6.559038	 9.033609	-5.188889	 0.308190	 3.541030	-5.234859	 0.342567	 0.430617	 0.478889	 18.239090	-6.319646	 0.580552	-27.269170	-0.357645	 97.476170	 64.665410	-159.065700	-5.937478	 5.152344	 56.047290	 4.181872	 9.002971	 37.533360	 13.025080	-33.418010	 15.753790	 1.803333	 3.979147	-15.098590	 4.898592	 3.004813	-9.310344	 5.224449	 0.395017	 2.014677
-0.040826	 0.232514	 1.048991	 1.137461	 32.901000	-6.276684	 10.235150	-81.991140	-171.251900	 6.227358	-71.629560	 6.308122	-0.624046	 77.237090	 0.620018	-2.385832	 28.452790	-0.000001	 63.722000	-79.324640	-120.830000	-17.461120	-74.010820	-11.852160	 24.162910	 75.519790	-12.727660	 2.384659	 28.388700	-0.000001	-7.574075	 14.981580	 1.392601	-2.505743	 22.641740	 3.237626	-0.036575	-2.056139	 1.723197	-98.653530	 68.601290	 157.764000	 8.000852	-3.075933	-50.149820	-20.051160	 11.337480	-26.217210	-32.437790	-40.473010	-22.641950	-2.027600	 6.559038	 9.033609	-5.188889	 0.308190	 3.541030	-5.234859	 0.342567	 0.430617	-0.349913	 12.527770	-4.420159	 1.320987	-21.688910	-0.829262	 97.155730	 64.260860	-160.246100	-6.920634	 5.144224	 55.557640	 4.682367	 9.827020	 39.416890	 14.050660	-39.366780	 18.009110	 1.803333	 3.979147	-15.098590	 4.898592	 3.004813	-9.310344	 5.224449	 0.395017	 2.014677
-0.038282	 0.232055	 1.069989	 0.622528	 31.260570	-5.354903	 4.237836	-78.589200	-177.251000	 5.241756	-68.920170	 5.281866	-1.490554	 76.005360	 1.216344	-2.385833	 28.452760	 0.000004	 45.928250	-77.732860	-138.442600	-16.095120	-70.998020	-10.365500	 21.726790	 74.414350	-10.227550	 2.384659	 28.388700	-0.000001	-6.496126	 14.919310	 1.445671	-2.446623	 23.336710	 3.315234	 0.879657	-3.809028	 0.999153	-97.672090	 69.906200	 158.887200	 8.882951	 1.073853	-51.276940	-19.306300	 11.816280	-27.365930	-35.515100	-46.487540	-25.344570	-2.027600	 6.559038	 9.033609	-5.188889	 0.308190	 3.541030	-5.234859	 0.342567	 0.430617	-0.889044	 5.696987	-2.927623	 1.937640	-15.128190	-1.464709	 96.740900	 64.267560	-161.292300	-8.327277	 5.974340	 54.745740	 4.422500	 10.358530	 41.569890	 14.815350	-44.607000	 19.746230	 1.803333	 3.979147	-15.098590	 4.898592	 3.004813	-9.310344	 5.224449	 0.395017	 2.014677
-0.032917	 0.231570	 1.104905	 0.107295	 28.268400	-3.927696	 0.105563	-72.499530	 178.661700	 4.655720	-64.189320	 4.568504	-2.171142	 74.044530	 1.330972	-2.385833	 28.452750	 0.000004	 26.445640	-73.004830	-157.492500	-14.595650	-65.823220	-8.633602	 19.053920	 72.704950	-7.293459	 2.384659	 28.388700	-0.000001	-4.784038	 14.990860	 1.406165	-2.381542	 24.120540	 3.218253	 2.039881	-6.640841	 0.268254	-94.779600	 74.465550	 160.399200	 11.398270	 9.427055	-54.548830	-17.992450	 12.209880	-28.759780	-41.939370	-54.960540	-30.849990	-2.027600	 6.559038	 9.033609	-5.188889	 0.308190	 3.541030	-5.234859	 0.342567	 0.430617	-1.389964	-5.999650	-2.223760	 3.007208	-3.963681	-1.808831	 95.280530	 66.904550	-162.886200	-10.957590	 10.594940	 54.642240	 3.088127	 10.660900	 45.205930	 16.696060	-53.132350	 21.995750	 1.803333	 3.979147	-15.098590	 4.898592	 3.004813	-9.310344	 5.224449	 0.395017	 2.014677
-0.028809	 0.230995	 1.126418	 0.154369	 26.423830	-3.125050	-1.590493	-68.623020	 177.191500	 4.570439	-61.114080	 4.427500	-2.176816	 72.888530	 1.027626	-2.385833	 28.452750	 0.000004	 19.555640	-69.329960	-164.062700	-12.634140	-62.531150	-6.651732	 17.986580	 71.836140	-6.594867	 2.384659	 28.388700	-0.000001	-3.733874	 14.932930	 1.192263	-2.416980	 24.468580	 2.994264	 2.592388	-8.375754	 0.046924	-92.948090	 77.027080	 161.217000	 13.542840	 13.557690	-56.172210	-16.947020	 12.725890	-30.285020	-45.647070	-58.998970	-34.517940	-2.027600	 6.559038	 9.033609	-5.188889	 0.308190	 3.541030	-5.234859	 0.342567	 0.430617	-1.661932	-12.999210	-2.494699	 3.574275	 2.653767	-1.819041	 94.311100	 68.801370	-163.864800	-12.967490	 13.626830	 54.796440	 2.195622	 10.834710	 47.829840	 17.477930	-57.626820	 22.711420	 1.803333	 3.979147	-15.098590	 4.898592	 3.004813	-9.310344	 5.224449	 0.395017	 2.014677
-0.023417	 0.227772	 1.153639	 0.869844	 24.655450	-2.477423	-2.369380	-64.039700	 176.971500	 4.469174	-56.802720	 4.091288	-1.215899	 71.339230	-0.080725	-2.385833	 28.452750	 0.000004	 14.265250	-64.654880	-168.636500	-10.345400	-58.100350	-4.417312	 17.269590	 70.460750	-6.337004	 2.384659	 28.388700	-0.000001	-2.235349	 13.910180	 0.492696	-2.656392	 24.424140	 2.612902	 3.150889	-10.287760	-0.335385	-93.940410	 75.158240	 163.358200	 15.574150	 14.748990	-53.521280	-14.933370	 14.556000	-34.925400	-47.769100	-62.015510	-38.145640	-2.027600	 6.559038	 9.033609	-5.188889	 0.308190	 3.541030	-5.234859	 0.342567	 0.430617	-1.673199	-14.694130	-1.001308	 4.093227	 4.269967	-2.702698	 93.760070	 69.515170	-164.964400	-15.206780	 16.463430	 52.835130	 0.936671	 11.033720	 51.774690	 16.928270	-61.280780	 22.458860	 1.803333	 3.979147	-15.098590	 4.898592	 3.004813	-9.310344	 5.224449	 0.395017	 2.014677
-0.019112	 0.220164	 1.191163	 1.613170	 22.596140	-1.859464	-3.520897	-57.589720	 176.538700	 4.084336	-50.233600	 3.462557	-1.552678	 68.742540	 0.013666	-2.385833	 28.452750	 0.000004	 9.324475	-58.127090	-172.662000	-7.864967	-51.264820	-2.121324	 14.384190	 68.006760	-4.301719	 2.384659	 28.388700	-0.000001	-0.003728	 11.794320	 0.247846	-2.342724	 24.083580	 1.912312	 3.526926	-12.730320	-0.464269	-94.592180	 73.051580	 165.601100	 18.557590	 15.591470	-50.479510	-12.101080	 16.232570	-40.582520	-44.130320	-64.500170	-36.451030	-2.027600	 6.559038	 9.033609	-5.188889	 0.308190	 3.541030	-5.234859	 0.342567	 0.430617	-1.826441	-15.236360	-0.872675	 4.674905	 5.214417	-2.511842	 93.996580	 66.444660	-167.238100	-17.313380	 16.702180	 47.936310	-0.905893	 11.337730	 58.475770	 13.023550	-62.984660	 19.937060	 1.803333	 3.979147	-15.098590	 4.898592	 3.004813	-9.310344	 5.224449	 0.395017	 2.014677
-0.016677	 0.213213	 1.216793	 2.181046	 20.795050	-1.227513	-4.218541	-52.397940	 176.175000	 3.767401	-45.407330	 2.982067	-1.456234	 67.093180	-0.029676	-2.385833	 28.452750	 0.000004	 6.546393	-52.710500	-174.958400	-6.353324	-45.992940	-0.868235	 12.651170	 66.444560	-3.146192	 2.384659	 28.388700	-0.000001	 1.821742	 10.171030	-0.012851	-2.059710	 23.542420	 1.270201	 3.644096	-14.124330	-0.528506	-94.819980	 71.512450	 167.190200	 20.330830	 15.859510	-48.456220	-9.900529	 17.089900	-44.707500	-37.030800	-64.584900	-30.932410	-2.027600	 6.559038	 9.033609	-5.188889	 0.308190	 3.541030	-5.234859	 0.342567	 0.430617	-1.859284	-14.861380	-0.660296	 4.862693	 5.374101	-2.530314	 93.837330	 64.701610	-168.830900	-18.773610	 17.190050	 45.512880	-2.112520	 11.117630	 62.244800	 8.477715	-62.310010	 16.663280	 1.803333	 3.979147	-15.098590	 4.898592	 3.004813	-9.310344	 5.224449	 0.395017	 2.014677
-0.013801	 0.200535	 1.244862	 2.722602	 16.871920	-0.364048	-4.117120	-43.985750	 176.316100	 3.193679	-39.986160	 2.321746	-0.635600	 66.136940	-0.371309	-2.385833	 28.452750	 0.000004	 4.228998	-43.888960	-177.057800	-4.478222	-39.798310	 0.427626	 11.054470	 65.324370	-2.404702	 2.384659	 28.388700	-0.000001	 4.492986	 8.456316	-0.336764	-1.953991	 22.473130	 0.788557	 3.601483	-15.174000	-0.464417	-94.623750	 70.432010	 169.234900	 22.264960	 16.515110	-46.947550	-7.255852	 17.285500	-48.778950	-26.286540	-61.247950	-23.374310	-2.027600	 6.559038	 9.033609	-5.188889	 0.308190	 3.541030	-5.234859	 0.342567	 0.430617	-1.912489	-13.259480	-0.855268	 4.795913	 4.571941	-2.420879	 93.380360	 63.663570	-170.573000	-21.164620	 19.174260	 44.946450	-3.282249	 10.116200	 64.275300	 2.158022	-58.162610	 12.927230	 1.803333	 3.979147	-15.098590	 4.898592	 3.004813	-9.310344	 5.224449	 0.395017	 2.014677
